<?xml version="1.0" encoding="UTF-8"?>
<!DOCTYPE svg PUBLIC "-//W3C//DTD SVG 1.1//EN" "http://www.w3.org/Graphics/SVG/1.1/DTD/svg11.dtd">
<svg version="1.1" xmlns="http://www.w3.org/2000/svg" xmlns:xlink="http://www.w3.org/1999/xlink" x="0" y="0" width="585" height="525" viewBox="0, 0, 585, 525">
  <defs>
    <clipPath id="Clip_1">
      <path d="M574.32,338.781 C595.164,248.289 511.844,226.102 511.844,226.102 L513.578,173.977 L467.328,197.063 L389.437,173.664 L381.062,125.617 L337.133,157.938 C337.133,157.938 216.625,120.305 184.852,226.024 C178.953,245.703 179.383,263.586 184.383,279.774 C176.453,277.578 158.836,273.375 152.156,277.196 C143.406,282.195 137.156,301.571 143.406,318.446 C149.656,335.321 264.656,422.195 264.656,422.195 L270.281,511.648 L486.531,511.648 L469.031,465.945 L507.156,484.695 C507.156,484.695 499.656,511.648 525.906,511.648 C552.156,511.648 553.406,484.07 552.156,482.195 C550.906,480.32 496.531,417.195 496.531,417.195 L494.148,416.141 C531.273,408.703 563.172,387.172 574.32,338.781 z"/>
    </clipPath>
  </defs>
  <g id="Layer_1">
    <path d="M162.156,305.125 L13.812,310.125 L13.812,350.953 L182.156,350.953 L162.156,305.125" fill="#C7B267"/>
    <path d="M183.812,308.453 L27.992,308.453 L24.656,8.125 L534.656,8.953 L537.977,238.125 C537.977,238.126 441.312,158.125 262.977,152.281 C152.977,183.125 183.812,308.453 183.812,308.453" fill="#488546"/>
    <g clip-path="url(#Clip_1)">
      <path d="M574.32,338.781 C595.164,248.289 511.844,226.102 511.844,226.102 L513.578,173.977 L467.328,197.063 L389.437,173.664 L381.062,125.617 L337.133,157.938 C337.133,157.938 216.625,120.305 184.852,226.024 C178.953,245.703 179.383,263.586 184.383,279.774 C176.453,277.578 158.836,273.375 152.156,277.196 C143.406,282.195 137.156,301.571 143.406,318.446 C149.656,335.321 264.656,422.195 264.656,422.195 L270.281,511.648 L486.531,511.648 L469.031,465.945 L507.156,484.695 C507.156,484.695 499.656,511.648 525.906,511.648 C552.156,511.648 553.406,484.07 552.156,482.195 C550.906,480.32 496.531,417.195 496.531,417.195 L494.148,416.141 C531.273,408.703 563.172,387.172 574.32,338.781" fill="#F2D885"/>
      <path d="M477.016,313.524 C466.844,349.422 411.258,365.094 352.875,348.531 C294.5,331.985 255.414,289.453 265.609,253.555 C275.789,217.656 331.375,201.985 389.75,218.547 C448.133,235.094 487.211,277.625 477.016,313.524" fill="#FFFFFE"/>
      <path d="M395.492,165.625 L374.656,196.453 M427.992,174.797 L414.656,209.797 M462.992,185.625 L456.312,218.125 M233.813,154.797 L254.656,187.297 M188.813,197.297 L234.656,217.297 M172.156,255.625 L222.156,263.125 M531.312,270.625 L596.312,265.625 M525.492,323.953 L592.156,333.953 M502.992,364.797 L530.492,414.797 M249.656,433.125 L286.312,448.125 M252.156,486.453 L289.656,488.953" fill-opacity="0" stroke="#D99E55" stroke-width="20" stroke-linecap="round" stroke-linejoin="round"/>
    </g>
    <path d="M469.516,462.961 L449.086,460.688 C443.695,460.164 438.656,464.023 438.055,469.524 C437.445,475.008 441.391,479.953 446.883,480.563 L478.305,484.063 L469.516,462.961" fill="#D99E55"/>
    <path d="M338.172,228.86 C338.172,249 321.508,265.344 300.945,265.344 C280.398,265.344 263.734,249 263.734,228.86 C263.734,208.719 280.398,192.391 300.945,192.391 C321.508,192.391 338.172,208.719 338.172,228.86" fill="#EFB5C6"/>
    <path d="M332.25,223.445 C332.25,237.328 320.648,248.586 306.375,248.586 C292.078,248.586 280.492,237.328 280.492,223.445 C280.492,209.563 292.078,198.313 306.375,198.313 C320.648,198.313 332.25,209.563 332.25,223.445" fill="#E98EA8"/>
    <path d="M297.992,207.61 C297.992,211.992 294.437,215.555 290.047,215.555 C285.672,215.555 282.094,211.992 282.094,207.61 C282.094,203.211 285.672,199.656 290.047,199.656 C294.437,199.656 297.992,203.211 297.992,207.61" fill="#FFFFFE"/>
    <path d="M495.203,268.117 C495.203,288.266 478.539,304.602 457.977,304.602 C437.43,304.602 420.766,288.266 420.766,268.117 C420.766,247.977 437.43,231.649 457.977,231.649 C478.539,231.649 495.203,247.977 495.203,268.117" fill="#EFB5C6"/>
    <path d="M489.281,262.703 C489.281,276.578 477.68,287.844 463.406,287.844 C449.109,287.844 437.523,276.578 437.523,262.703 C437.523,248.82 449.109,237.57 463.406,237.57 C477.68,237.57 489.281,248.82 489.281,262.703" fill="#E98EA8"/>
    <path d="M455.023,246.867 C455.023,251.25 451.469,254.813 447.078,254.813 C442.703,254.813 439.125,251.25 439.125,246.867 C439.125,242.469 442.703,238.914 447.078,238.914 C451.469,238.914 455.023,242.469 455.023,246.867" fill="#FFFFFE"/>
    <path d="M389.437,173.664 L381.062,125.617 L337.133,157.938 C337.133,157.938 216.625,120.305 184.852,226.024 C153.109,331.711 304.203,385.695 364.656,403.836 C425.086,421.985 549.812,445.164 574.32,338.781 C595.164,248.289 511.844,226.102 511.844,226.102 L513.578,173.977 L467.328,197.063 L389.437,173.664 z" fill-opacity="0" stroke="#523B25" stroke-width="10" stroke-linecap="round" stroke-linejoin="round"/>
    <path d="M357.797,218.86 C354.555,229.68 346.062,236.688 338.836,234.5 C331.625,232.336 328.383,221.828 331.625,211.008 C334.891,200.203 343.383,193.196 350.609,195.359 C357.82,197.532 361.039,208.055 357.797,218.86" fill="#523B25"/>
    <path d="M437.133,242.703 C433.891,253.524 425.398,260.516 418.187,258.352 C410.945,256.164 407.742,245.656 410.984,234.836 C414.242,224.031 422.719,217.039 429.945,219.211 C437.172,221.375 440.375,231.883 437.133,242.703" fill="#523B25"/>
    <path d="M399.359,223.899 C398.187,227.86 392.016,229.524 385.594,227.586 C379.164,225.672 374.945,220.867 376.141,216.906 C377.328,212.938 383.5,211.297 389.906,213.235 C396.336,215.164 400.57,219.93 399.359,223.899" fill="#523B25"/>
    <path d="M386.195,223.484 L363.461,299.188 M307.977,239.133 C307.977,239.134 301.453,279.836 362.484,302.469 C423.5,325.07 444.594,278.016 444.594,278.016 M252.875,185.266 L220.648,134.328 M225.75,237.586 L169.344,222.781 M551.82,280.789 L577.156,277.078 M535.922,337.922 L577.156,362.078 M184.656,279.578 C184.656,279.578 144.656,264.578 140.906,302.078 C137.156,339.578 264.656,422.078 264.656,422.078 C264.656,422.078 267.156,485.828 270.906,515.828 M493.406,418.328 C493.406,418.328 549.656,459.578 549.656,490.828 C549.656,522.078 514.656,522.078 512.156,508.328 C509.656,494.578 505.906,483.328 505.906,483.328 L468.406,463.328 L485.906,507.078 M42.156,87.078 L149.656,278.328 M140.906,313.328 L8.406,313.328 L8.406,354.578 L167.156,354.578 M23.406,310.828 L23.406,7.078 L534.656,7.078 L534.656,233.328" fill-opacity="0" stroke="#523B25" stroke-width="10" stroke-linecap="round" stroke-linejoin="round"/>
  </g>
</svg>
