<svg id="Capa_1" enable-background="new 0 0 512 512" height="512" viewBox="0 0 512 512" width="512" xmlns="http://www.w3.org/2000/svg"><g><g><g><g><g><g><g><g><circle cx="256" cy="256" fill="#7584f2" r="256"/></g></g></g></g></g></g></g><path d="m512 256c0-11.326-.735-22.479-2.161-33.416l-135.11-135.11-235.183 339.499 82.84 82.84c11 1.443 22.22 2.187 33.614 2.187 141.385 0 256-114.615 256-256z" fill="#4855b7"/><g><path d="m347.815 437.026h-183.63c-19.465 0-35.244-15.779-35.244-35.244v-291.565c0-19.465 15.779-35.244 35.244-35.244h183.63c19.465 0 35.244 15.779 35.244 35.244v291.565c0 19.465-15.78 35.244-35.244 35.244z" fill="#fff"/></g><g><path d="m347.815 74.974h-91.694v362.053h91.694c19.465 0 35.244-15.779 35.244-35.244v-291.565c0-19.465-15.78-35.244-35.244-35.244z" fill="#e9edf5"/></g><g><path d="m151.095 99.163h209.81v292.335h-209.81z" fill="#64e1dc"/></g><g><path d="m256.121 99.163h104.784v292.335h-104.784z" fill="#00c8c8"/></g><g><path d="m331.15 191.97-33.621 13.956v-8.102c0-8.59-6.964-15.553-15.553-15.553h-85.573c-8.59 0-15.553 6.963-15.553 15.553v73.048c0 8.59 6.963 15.553 15.553 15.553h85.573c8.59 0 15.553-6.963 15.553-15.553v-8.102l33.621 13.956z" fill="#414952"/></g><g><path d="m297.529 205.926v-8.102c0-8.59-6.963-15.553-15.553-15.553h-25.855v104.155h25.855c8.59 0 15.553-6.964 15.553-15.553v-8.102l33.621 13.956v-84.757z" fill="#23272b"/></g><g><circle cx="256" cy="412.147" fill="#dce1eb" r="13.387"/></g><g><path d="m269.387 412.147c0-7.353-5.929-13.316-13.267-13.381v26.762c7.338-.065 13.267-6.028 13.267-13.381z" fill="#bec3d2"/></g></g></svg>